<svg width="32" height="32" viewBox="0 0 32 32" fill="none" xmlns="http://www.w3.org/2000/svg">
<path fill-rule="evenodd" clip-rule="evenodd" d="M7.625 10.3125C7.625 7.03331 10.2833 4.375 13.5625 4.375H22.3125C23.5206 4.375 24.5 5.35438 24.5 6.5625C24.5 7.77062 23.5206 8.75 22.3125 8.75H13.5625C12.6996 8.75 12 9.44956 12 10.3125V13.5884H21.0625C22.961 13.5884 24.5 15.1274 24.5 17.0259V20.3125C24.5 24.282 21.282 27.5 17.3125 27.5H9.8125C8.60438 27.5 7.625 26.5206 7.625 25.3125C7.625 24.1044 8.60438 23.125 9.8125 23.125H17.3125C18.8658 23.125 20.125 21.8658 20.125 20.3125V17.9634H7.625V10.3125Z" fill="#FE5448"/>
</svg>
