<svg width="32" height="32" viewBox="0 0 32 32" fill="none" xmlns="http://www.w3.org/2000/svg">
<path fill-rule="evenodd" clip-rule="evenodd" d="M8.5 11.0135C8.5 8.10656 10.8629 5.75 13.7778 5.75H21.5556C22.6294 5.75 23.5 6.6182 23.5 7.68919C23.5 8.76017 22.6294 9.62838 21.5556 9.62838H13.7778C13.0107 9.62838 12.3889 10.2485 12.3889 11.0135V13.9175H20.4444C22.132 13.9175 23.5 15.2818 23.5 16.9648V19.8784C23.5 23.3973 20.6396 26.25 17.1111 26.25H10.4444C9.37056 26.25 8.5 25.3818 8.5 24.3108C8.5 23.2398 9.37056 22.3716 10.4444 22.3716H17.1111C18.4918 22.3716 19.6111 21.2554 19.6111 19.8784V17.7959H8.5V11.0135Z" fill="#FE5448"/>
<path fill-rule="evenodd" clip-rule="evenodd" d="M8.5 11.0135C8.5 8.10656 10.8629 5.75 13.7778 5.75H21.5556C22.6294 5.75 23.5 6.6182 23.5 7.68919C23.5 8.76017 22.6294 9.62838 21.5556 9.62838H13.7778C13.0107 9.62838 12.3889 10.2485 12.3889 11.0135V13.9175H20.4444C22.132 13.9175 23.5 15.2818 23.5 16.9648V19.8784C23.5 23.3973 20.6396 26.25 17.1111 26.25H10.4444C9.37056 26.25 8.5 25.3818 8.5 24.3108C8.5 23.2398 9.37056 22.3716 10.4444 22.3716H17.1111C18.4918 22.3716 19.6111 21.2554 19.6111 19.8784V17.7959H8.5V11.0135Z" fill="white"/>
</svg>
